<svg width="81" height="40" viewBox="0 0 81 40" fill="none" xmlns="http://www.w3.org/2000/svg">
<path d="M31.038 28.3971H27.8015C26.6903 28.3971 25.7859 27.4927 25.7859 26.3815V7.57031C25.7859 6.08614 24.5826 4.88281 23.0984 4.88281C21.6142 4.88281 20.4109 6.08614 20.4109 7.57031V12.9897C18.7097 11.9476 16.7102 11.3469 14.5737 11.3469C8.39108 11.3469 3.36142 16.3766 3.36142 22.5592C3.36142 28.7418 8.39108 33.7714 14.5737 33.7714C15.2623 33.7714 15.9524 33.7083 16.6249 33.584C18.0842 33.3139 19.0484 31.9117 18.7783 30.4524C18.5082 28.993 17.106 28.0282 15.6467 28.299C15.2959 28.3642 14.9351 28.3971 14.5743 28.3971C11.3554 28.3971 8.73709 25.7781 8.73709 22.5598C8.73709 19.3416 11.3561 16.7226 14.5743 16.7226C17.7926 16.7226 20.4116 19.3416 20.4116 22.5598V26.3815C20.4116 30.4564 23.7273 33.7721 27.8022 33.7721H31.0386C32.5228 33.7721 33.7261 32.5688 33.7261 31.0846C33.7261 29.6004 32.5228 28.3971 31.0386 28.3971H31.038Z" fill="white"/>
<path d="M68.9331 30.2991C66.8388 32.4921 64.0297 33.7182 61.0063 33.7659C60.9458 33.77 60.8853 33.7727 60.8235 33.7727H48.7728C44.6911 33.7727 41.3822 30.4637 41.3822 26.382V20.6745C41.3822 18.4747 39.5762 16.6896 37.369 16.7232C35.2009 16.7561 33.4789 18.5654 33.4789 20.7343V23.6247C33.4789 25.0914 32.3038 26.2839 30.8438 26.3122C29.3374 26.3404 28.1039 25.0786 28.1039 23.5716V14.3461C28.1039 12.8438 29.3334 11.584 30.8357 11.6082C31.6393 11.6216 32.3569 11.9871 32.8406 12.5575C34.2072 11.7815 35.7881 11.3408 37.4705 11.3475C42.6211 11.369 46.7572 15.6152 46.7572 20.7658V26.382C46.7572 27.4953 47.6602 28.3977 48.7728 28.3977H61.0876V28.3869C62.5973 28.3204 63.9948 27.6875 65.0463 26.5863C66.1582 25.4226 66.7293 23.8921 66.6547 22.2762C66.5157 19.2508 64.1292 16.8636 61.103 16.7245C61.0083 16.7198 60.9156 16.7111 60.8235 16.697C60.7322 16.7111 60.6394 16.7198 60.5447 16.7245C57.5186 16.8636 55.1321 19.2508 54.9923 22.2762C54.9386 23.452 55.2261 24.5827 55.8154 25.559C55.9235 25.739 55.7979 25.9682 55.5883 25.9682H50.9537C50.4578 25.9682 50.0225 25.6302 49.9089 25.1478C49.6724 24.142 49.5743 23.0959 49.6234 22.0296C49.7524 19.2266 50.9114 16.5948 52.8873 14.6188C54.8633 12.6435 57.4951 11.4839 60.2981 11.3549C60.4775 11.3468 60.6535 11.3569 60.8249 11.3824C60.9955 11.3569 61.1709 11.3468 61.3496 11.3549C64.1527 11.4839 66.7844 12.6435 68.7604 14.6188C70.7364 16.5948 71.8954 19.2266 72.0244 22.0296C72.1668 25.1256 71.0689 28.0631 68.9331 30.2991Z" fill="white"/>
<path d="M76.0422 28.397H73.5058C73.3023 28.397 73.1155 28.5125 73.0255 28.6953C72.4067 29.9477 71.593 31.1127 70.5973 32.1548C70.1196 32.6546 69.6117 33.1142 69.0768 33.5321C68.9761 33.6107 69.0312 33.772 69.1588 33.772H76.0422C77.5263 33.772 78.7297 32.5686 78.7297 31.0845C78.7297 29.6003 77.5263 28.397 76.0422 28.397Z" fill="white"/>
</svg>
