<svg width="244" height="28" viewBox="0 0 244 28" fill="none" xmlns="http://www.w3.org/2000/svg">
<path d="M88.6042 8H96.1042V4C95.9376 2.83333 94.6042 0.5 90.6042 0.5H69.6042C68.2709 0.666667 65.6042 1.7 65.6042 4.5V11.5C65.7709 12.8333 66.8042 15.5 69.6042 15.5H87.6042C88.2709 15.5 89.6042 16.4 89.6042 18C89.6042 19.6 88.1042 20.5 87.6042 20.5H74.6042C73.7709 20.5 72.1042 19.8 72.1042 17H65.6042V21.5C65.7709 22.6667 66.8042 25 69.6042 25H92.6042C93.7709 25 96.1042 24.3 96.1042 21.5V14C96.1042 12.6667 95.3042 10 92.1042 10H75.1042C74.2709 10 72.6042 9.5 72.6042 7.5C72.6042 5.5 74.2709 5 75.1042 5H86.6042C87.2709 5 88.6042 5.6 88.6042 8Z" fill="#01B0E9"/>
<path fill-rule="evenodd" clip-rule="evenodd" d="M26.1042 25L39.1042 0.5H49.6042L63.1042 25H54.6042L52.1042 20.5H36.6042L34.1042 25H26.1042ZM44.6042 6.5L39.1042 15.5H49.6042L44.6042 6.5Z" fill="#01B0E9"/>
<path d="M0.104248 0.5H26.1042V6.5H7.10425V11.5H24.6042V16.5H7.10425V25H0.104248V0.5Z" fill="#01B0E9"/>
<path d="M99.1042 0.5V6H110.104V25H118.104V6H129.104V0.5H99.1042Z" fill="#01B0E9"/>
<path d="M145.562 25.544C143.578 25.544 141.925 25.2347 140.602 24.616C139.279 23.976 138.287 23.112 137.626 22.024C136.965 20.9147 136.634 19.6667 136.634 18.28H138.362C138.362 19.3467 138.607 20.3067 139.098 21.16C139.61 22.0133 140.399 22.696 141.466 23.208C142.533 23.6987 143.898 23.944 145.562 23.944C147.119 23.944 148.421 23.72 149.466 23.272C150.511 22.824 151.29 22.216 151.802 21.448C152.335 20.6587 152.602 19.752 152.602 18.728C152.602 17.4693 152.133 16.4027 151.194 15.528C150.255 14.632 148.826 14.088 146.906 13.896L144.122 13.672C142.181 13.5013 140.645 12.8827 139.514 11.816C138.383 10.7493 137.818 9.352 137.818 7.624C137.818 6.38667 138.106 5.27733 138.682 4.296C139.258 3.29333 140.122 2.504 141.274 1.928C142.426 1.33067 143.845 1.032 145.53 1.032C147.237 1.032 148.677 1.352 149.85 1.992C151.023 2.61067 151.909 3.45333 152.506 4.52C153.125 5.56533 153.434 6.74933 153.434 8.072H151.706C151.706 7.112 151.493 6.22667 151.066 5.416C150.639 4.584 149.967 3.912 149.05 3.4C148.154 2.888 146.981 2.632 145.53 2.632C144.122 2.632 142.981 2.86666 142.106 3.336C141.231 3.784 140.581 4.392 140.154 5.16C139.749 5.90667 139.546 6.728 139.546 7.624C139.546 8.904 139.951 9.928 140.762 10.696C141.594 11.464 142.778 11.9227 144.314 12.072L147.098 12.296C148.655 12.424 149.967 12.7867 151.034 13.384C152.122 13.96 152.943 14.7067 153.498 15.624C154.053 16.5413 154.33 17.576 154.33 18.728C154.33 20.0293 153.989 21.2027 153.306 22.248C152.623 23.272 151.631 24.0827 150.33 24.68C149.029 25.256 147.439 25.544 145.562 25.544ZM166.333 25.544C164.904 25.544 163.667 25.2987 162.621 24.808C161.576 24.296 160.723 23.624 160.061 22.792C159.4 21.9387 158.899 20.9893 158.557 19.944C158.237 18.8773 158.077 17.8 158.077 16.712V16.392C158.077 15.2827 158.237 14.216 158.557 13.192C158.899 12.168 159.4 11.24 160.061 10.408C160.744 9.55467 161.587 8.89333 162.589 8.424C163.613 7.93333 164.797 7.688 166.141 7.688C167.848 7.688 169.277 8.072 170.429 8.84C171.603 9.58667 172.488 10.568 173.085 11.784C173.683 13 173.981 14.28 173.981 15.624V16.776H158.877V15.368H172.861L172.349 16.008C172.349 14.7067 172.104 13.544 171.613 12.52C171.144 11.496 170.44 10.696 169.501 10.12C168.584 9.52267 167.464 9.224 166.141 9.224C164.712 9.224 163.517 9.55467 162.557 10.216C161.597 10.8773 160.872 11.7627 160.381 12.872C159.912 13.9813 159.677 15.208 159.677 16.552C159.677 17.896 159.912 19.1333 160.381 20.264C160.872 21.3733 161.608 22.28 162.589 22.984C163.571 23.6667 164.819 24.008 166.333 24.008C167.955 24.008 169.256 23.6347 170.237 22.888C171.24 22.1413 171.848 21.2453 172.061 20.2H173.725C173.491 21.2453 173.043 22.1733 172.381 22.984C171.72 23.7947 170.877 24.424 169.853 24.872C168.851 25.32 167.677 25.544 166.333 25.544ZM188.492 25V19.976H188.172V13.8C188.172 12.456 187.82 11.4213 187.116 10.696C186.412 9.94933 185.25 9.576 183.628 9.576C183.052 9.576 182.466 9.59733 181.868 9.64C181.271 9.66133 180.706 9.69333 180.172 9.736C179.639 9.75733 179.159 9.8 178.732 9.864V8.328C179.159 8.264 179.607 8.21067 180.076 8.168C180.567 8.12533 181.058 8.09333 181.548 8.072C182.039 8.05067 182.508 8.04 182.956 8.04C184.642 8.04 185.986 8.264 186.988 8.712C187.991 9.13867 188.716 9.8 189.164 10.696C189.612 11.5707 189.836 12.6907 189.836 14.056V25H188.492ZM182.636 25.448C181.506 25.448 180.492 25.2453 179.596 24.84C178.7 24.4347 177.986 23.8373 177.452 23.048C176.94 22.2587 176.684 21.2987 176.684 20.168C176.684 19.08 176.93 18.152 177.42 17.384C177.932 16.616 178.658 16.0293 179.596 15.624C180.556 15.2187 181.708 15.016 183.052 15.016H188.332V16.392H182.892C181.442 16.392 180.322 16.744 179.532 17.448C178.764 18.1307 178.38 19.0373 178.38 20.168C178.38 21.3627 178.796 22.312 179.628 23.016C180.46 23.6987 181.548 24.04 182.892 24.04C183.724 24.04 184.535 23.88 185.324 23.56C186.114 23.24 186.775 22.7067 187.308 21.96C187.842 21.192 188.13 20.168 188.172 18.888L188.812 19.624C188.748 20.9253 188.428 22.0133 187.852 22.888C187.298 23.7413 186.572 24.3813 185.676 24.808C184.78 25.2347 183.767 25.448 182.636 25.448ZM195.549 25V8.2H196.893V15.304H196.637C196.637 12.872 197.181 11.0587 198.269 9.864C199.357 8.66933 201.117 8.072 203.549 8.072H204.125V9.608H203.229C201.245 9.608 199.752 10.12 198.749 11.144C197.746 12.1467 197.245 13.6293 197.245 15.592V25H195.549ZM214.289 25.544C212.902 25.544 211.686 25.288 210.641 24.776C209.617 24.264 208.753 23.5813 208.049 22.728C207.366 21.8747 206.854 20.9253 206.513 19.88C206.172 18.8347 206.001 17.7787 206.001 16.712V16.392C206.001 15.304 206.172 14.2373 206.513 13.192C206.854 12.1467 207.366 11.2187 208.049 10.408C208.753 9.576 209.617 8.91467 210.641 8.424C211.686 7.93333 212.902 7.688 214.289 7.688C215.633 7.688 216.828 7.93333 217.873 8.424C218.94 8.91467 219.804 9.608 220.465 10.504C221.148 11.3787 221.574 12.4347 221.745 13.672H220.081C219.889 12.392 219.292 11.336 218.289 10.504C217.286 9.65067 215.953 9.224 214.289 9.224C212.817 9.224 211.59 9.55467 210.609 10.216C209.628 10.8773 208.892 11.7627 208.401 12.872C207.932 13.9813 207.697 15.208 207.697 16.552C207.697 17.8533 207.942 19.0693 208.433 20.2C208.924 21.3307 209.66 22.248 210.641 22.952C211.622 23.6347 212.838 23.976 214.289 23.976C215.42 23.976 216.412 23.7733 217.265 23.368C218.14 22.9413 218.844 22.3867 219.377 21.704C219.91 21 220.23 20.232 220.337 19.4H222.001C221.852 20.6373 221.425 21.7147 220.721 22.632C220.017 23.528 219.11 24.2427 218.001 24.776C216.892 25.288 215.654 25.544 214.289 25.544ZM226.019 25V1.64H227.715V14.12L227.107 15.208C227.107 13.736 227.331 12.4453 227.779 11.336C228.248 10.2053 228.952 9.33067 229.891 8.712C230.83 8.072 232.014 7.752 233.443 7.752H233.507C235.598 7.752 237.176 8.41333 238.243 9.736C239.31 11.0373 239.843 12.8187 239.843 15.08V25H238.115V14.696C238.115 13.0747 237.678 11.7733 236.803 10.792C235.928 9.81067 234.691 9.32 233.091 9.32C231.448 9.32 230.136 9.84267 229.155 10.888C228.195 11.912 227.715 13.256 227.715 14.92V25H226.019Z" fill="white"/>
</svg>
