<svg width="32" height="35" viewBox="0 0 32 35" fill="none" xmlns="http://www.w3.org/2000/svg">
<path d="M8.75 5.019L16 9.16285L23.25 5.019M8.75 29.8502V21.5785L1.5 17.4346M30.5 17.4346L23.25 21.5785V29.8502M1.935 9.40192L16 17.4506L30.065 9.40192M16 33.5V17.4346M30.5 23.8098V11.0595C30.4994 10.5005 30.3503 9.95148 30.0675 9.46753C29.7847 8.98358 29.3782 8.5817 28.8889 8.30221L17.6111 1.92705C17.1213 1.64729 16.5656 1.5 16 1.5C15.4344 1.5 14.8787 1.64729 14.3889 1.92705L3.11111 8.30221C2.62176 8.5817 2.2153 8.98358 1.93252 9.46753C1.64974 9.95148 1.50058 10.5005 1.5 11.0595V23.8098C1.50058 24.3688 1.64974 24.9178 1.93252 25.4017C2.2153 25.8857 2.62176 26.2875 3.11111 26.567L14.3889 32.9422C14.8787 33.2219 15.4344 33.3692 16 33.3692C16.5656 33.3692 17.1213 33.2219 17.6111 32.9422L28.8889 26.567C29.3782 26.2875 29.7847 25.8857 30.0675 25.4017C30.3503 24.9178 30.4994 24.3688 30.5 23.8098Z" stroke="white" stroke-width="3" stroke-linecap="round" stroke-linejoin="round"/>
</svg>
