<svg width="18" height="19" viewBox="0 0 18 19" fill="none" xmlns="http://www.w3.org/2000/svg">
<g clip-path="url(#clip0_1_854)">
<path d="M8.99975 12.2142C10.4988 12.2142 11.714 10.999 11.714 9.49993C11.714 8.00087 10.4988 6.78564 8.99975 6.78564C7.50069 6.78564 6.28546 8.00087 6.28546 9.49993C6.28546 10.999 7.50069 12.2142 8.99975 12.2142Z" fill="#757185"/>
<path d="M12.3918 1.35718H5.60613C2.98753 1.35718 0.856812 3.48857 0.856812 6.10786V12.8936C0.856812 15.5122 2.9882 17.6429 5.60749 17.6429H12.3932C15.0118 17.6429 17.1425 15.5115 17.1425 12.8922V6.1065C17.1425 3.48789 15.0111 1.35718 12.3918 1.35718ZM8.99967 13.5715C6.75428 13.5715 4.92824 11.7454 4.92824 9.50003C4.92824 7.25464 6.75428 5.42861 8.99967 5.42861C11.2451 5.42861 13.0711 7.25464 13.0711 9.50003C13.0711 11.7454 11.2451 13.5715 8.99967 13.5715ZM13.7497 5.42861C13.3751 5.42861 13.0711 5.12461 13.0711 4.75003C13.0711 4.37546 13.3751 4.07146 13.7497 4.07146C14.1242 4.07146 14.4282 4.37546 14.4282 4.75003C14.4282 5.12461 14.1242 5.42861 13.7497 5.42861Z" fill="#757185"/>
</g>
<defs>
<clipPath id="clip0_1_854">
<rect width="17.1429" height="17.1429" fill="white" transform="translate(0.428589 0.928467)"/>
</clipPath>
</defs>
</svg>
