<svg width="18" height="19" viewBox="0 0 18 19" fill="none" xmlns="http://www.w3.org/2000/svg">
<g clip-path="url(#clip0_10_3950)">
<path d="M2.59649 5.67477C3.61286 5.67477 4.43869 4.84965 4.43869 3.8301C4.43869 2.81119 3.61286 1.98535 2.59649 1.98535C1.57722 1.98535 0.75 2.81121 0.75 3.8301C0.75 4.84965 1.57722 5.67477 2.59649 5.67477Z" fill="#757185"/>
<path d="M4.22975 6.83374H0.961695C0.845985 6.83374 0.75 6.92944 0.75 7.04623V17.692C0.75 17.8092 0.845985 17.9023 0.961695 17.9023H4.22973C4.34407 17.9023 4.43868 17.8092 4.43868 17.692V7.04625C4.43869 6.92944 4.34408 6.83374 4.22975 6.83374Z" fill="#757185"/>
<path d="M17.2384 9.46935C16.9998 8.57897 16.0483 6.67676 13.4 6.67676C11.8119 6.67676 10.7136 7.44608 10.1306 8.07396V7.04625C10.1306 6.92945 10.0374 6.83376 9.92164 6.83376H6.65359C6.53788 6.83376 6.4447 6.92946 6.4447 7.04625V17.692C6.4447 17.8092 6.53787 17.9024 6.65359 17.9024H9.92163C10.0374 17.9024 10.1306 17.8092 10.1306 17.692V11.1913C10.1419 10.5257 10.739 9.57597 11.874 9.57597C13.4536 9.57597 13.5581 10.5235 13.5581 11.6832V17.692C13.5581 17.8092 13.6513 17.9024 13.7698 17.9024H17.0379C17.155 17.9024 17.2496 17.8092 17.2496 17.692V10.1833C17.2525 9.46199 17.2384 9.46935 17.2384 9.46935Z" fill="#757185"/>
</g>
<defs>
<clipPath id="clip0_10_3950">
<rect width="17.1429" height="17.1429" fill="white" transform="translate(0.428589 0.928467)"/>
</clipPath>
</defs>
</svg>
