<svg width="184" height="40" viewBox="0 0 184 40" fill="none" xmlns="http://www.w3.org/2000/svg">
<rect width="40" height="40" rx="20" fill="#15131D"/>
<g clip-path="url(#clip0_11_6295)">
<path d="M28.5714 14.6967C27.9286 14.9646 27.2857 15.1789 26.5357 15.2324C27.2857 14.8039 27.8214 14.1074 28.0893 13.3039C27.3929 13.7324 26.6429 14.0003 25.8393 14.161C25.1964 13.4646 24.2857 13.036 23.3214 13.036C21.3929 13.036 19.7857 14.5896 19.7857 16.5717C19.7857 16.8396 19.8393 17.1074 19.8929 17.3753C16.9464 17.2146 14.375 15.8217 12.6071 13.6789C12.2857 14.2146 12.125 14.8039 12.125 15.4467C12.125 16.6789 12.7679 17.7503 13.6786 18.3932C13.0893 18.3932 12.5536 18.2324 12.0714 17.9646V18.0182C12.0714 19.7324 13.3036 21.1253 14.9107 21.4467C14.5893 21.5003 14.3214 21.5539 14 21.5539C13.7857 21.5539 13.5714 21.5539 13.3571 21.5003C13.7857 22.8932 15.125 23.911 16.625 23.9646C15.4464 24.9289 13.8929 25.4646 12.2321 25.4646C11.9643 25.4646 11.6429 25.4646 11.375 25.411C12.9821 26.3753 14.8571 26.9646 16.8393 26.9646C23.3214 26.9646 26.8571 21.6074 26.8571 16.9467C26.8571 16.786 26.8571 16.6253 26.8571 16.5182C27.5 15.9824 28.0893 15.3932 28.5714 14.6967Z" fill="#757185"/>
</g>
<rect x="72" width="40" height="40" rx="20" fill="#15131D"/>
<g clip-path="url(#clip1_11_6295)">
<path d="M92.0004 22.7145C93.4995 22.7145 94.7147 21.4992 94.7147 20.0002C94.7147 18.5011 93.4995 17.2859 92.0004 17.2859C90.5014 17.2859 89.2861 18.5011 89.2861 20.0002C89.2861 21.4992 90.5014 22.7145 92.0004 22.7145Z" fill="#757185"/>
<path d="M95.3925 11.8573H88.6067C85.9881 11.8573 83.8574 13.9887 83.8574 16.608V23.3937C83.8574 26.0123 85.9888 28.143 88.6081 28.143H95.3938C98.0124 28.143 100.143 26.0116 100.143 23.3923V16.6066C100.143 13.988 98.0117 11.8573 95.3925 11.8573ZM92.0003 24.0716C89.7549 24.0716 87.9289 22.2455 87.9289 20.0002C87.9289 17.7548 89.7549 15.9287 92.0003 15.9287C94.2457 15.9287 96.0717 17.7548 96.0717 20.0002C96.0717 22.2455 94.2457 24.0716 92.0003 24.0716ZM96.7503 15.9287C96.3757 15.9287 96.0717 15.6247 96.0717 15.2502C96.0717 14.8756 96.3757 14.5716 96.7503 14.5716C97.1249 14.5716 97.4289 14.8756 97.4289 15.2502C97.4289 15.6247 97.1249 15.9287 96.7503 15.9287Z" fill="#757185"/>
</g>
<rect x="144" width="40" height="40" rx="20" fill="#15131D"/>
<path d="M162.105 28.0361V21.0719H159.715V17.8576H162.105V15.6129C162.105 13.1678 163.653 11.9647 165.834 11.9647C166.879 11.9647 167.777 12.0425 168.039 12.0773V14.6326L166.526 14.6333C165.34 14.6333 165.072 15.197 165.072 16.0241V17.8576H168.286L167.215 21.0719H165.072V28.0361H162.105Z" fill="#757185"/>
<defs>
<clipPath id="clip0_11_6295">
<rect width="17.1429" height="17.1429" fill="white" transform="translate(11.4287 11.4286)"/>
</clipPath>
<clipPath id="clip1_11_6295">
<rect width="17.1429" height="17.1429" fill="white" transform="translate(83.4287 11.4286)"/>
</clipPath>
</defs>
</svg>
